<svg width="24" height="25" viewBox="0 0 24 25" fill="none" xmlns="http://www.w3.org/2000/svg">
<path d="M18 6.10901C18 4.51771 17.3679 2.99159 16.2426 1.86637C15.1174 0.74115 13.5913 0.109009 12 0.109009C10.4087 0.109009 8.88258 0.74115 7.75736 1.86637C6.63214 2.99159 6 4.51771 6 6.10901H0V21.109C0 21.9047 0.31607 22.6677 0.87868 23.2303C1.44129 23.7929 2.20435 24.109 3 24.109H21C21.7956 24.109 22.5587 23.7929 23.1213 23.2303C23.6839 22.6677 24 21.9047 24 21.109V6.10901H18ZM12 2.10901C13.0609 2.10901 14.0783 2.53044 14.8284 3.28058C15.5786 4.03073 16 5.04814 16 6.10901H8C8 5.04814 8.42143 4.03073 9.17157 3.28058C9.92172 2.53044 10.9391 2.10901 12 2.10901ZM22 21.109C22 21.3742 21.8946 21.6286 21.7071 21.8161C21.5196 22.0037 21.2652 22.109 21 22.109H3C2.73478 22.109 2.48043 22.0037 2.29289 21.8161C2.10536 21.6286 2 21.3742 2 21.109V8.10901H6V10.109H8V8.10901H16V10.109H18V8.10901H22V21.109Z" fill="#B6B6B6"/>
</svg>
