<svg width="149" height="58" viewBox="0 0 149 58" fill="none" xmlns="http://www.w3.org/2000/svg">
<path d="M84.0247 11.4596C79.7583 13.0649 74.4308 13.3986 69.0165 13.7363C62.0373 14.1731 54.8974 14.6194 50.8108 17.8489C48.6187 19.581 47.1732 22.4966 47.0084 27.2744C46.9829 28.0179 47.8187 30.32 47.8561 31.1492C48.3655 29.4456 49.5165 27.5526 50.3324 26.1653C52.6997 22.1391 55.0184 19.1894 59.5658 18.1145C60.802 17.822 61.6123 17.9559 63.0299 17.9076C64.2406 17.8648 64.5988 17.6698 64.6418 18.8771C64.6848 20.0844 64.2557 20.1985 63.045 20.2414C61.9633 20.2794 60.8855 20.7289 59.8882 20.9651C56.5363 21.7578 54.5368 24.2478 52.7992 27.2022C51.9506 28.645 50.6086 30.9534 50.4494 34.7331C53.0658 30.859 57.3331 25.4305 62.2753 24.1415C66.026 23.1633 69.8244 23.4638 73.3466 23.7452C78.7593 24.174 83.3466 24.5379 83.9483 18.055C84.0144 17.3416 84.0454 15.2805 84.0383 13.1544C84.0375 12.5861 84.0327 12.0121 84.0247 11.4596Z" fill="#E7E7E7"/>
<path d="M47.0665 26.232C47.0405 26.5697 47.0212 26.9172 47.0084 27.2744C46.9822 28.018 47.8179 30.3201 47.8554 31.1493C48.3648 29.4457 49.5158 27.5527 50.3316 26.1654C50.9268 25.1324 51.5759 24.1312 52.2762 23.1658C50.4612 24.0495 48.7192 25.0747 47.0665 26.232Z" fill="#94A04C"/>
<path d="M64.6479 18.9928C64.6582 20.09 64.2196 20.1994 63.0487 20.2406C61.967 20.2794 60.8893 20.7289 59.8919 20.9651C56.54 21.7578 54.5405 24.2478 52.8029 27.2022C51.9543 28.645 50.6123 30.9534 50.4531 34.7331C53.0695 30.8591 57.3368 25.4305 62.279 24.1415C66.0297 23.1633 69.8281 23.4638 73.3512 23.7452C78.7638 24.1741 85.8417 27.9466 83.398 11.8124C79.9236 21.1435 69.6252 17.9401 64.6479 18.9928Z" fill="#071108"/>
<path d="M26.1786 53.5015H23.7437C25.9407 51.2166 27.2781 48.2462 27.5296 45.0925C27.7811 41.9388 26.9313 38.7954 25.1239 36.1938C23.3165 33.5921 20.6625 31.6919 17.6105 30.8144C14.5585 29.9369 11.2959 30.1359 8.37429 31.3778C5.45268 32.6198 3.05135 34.8284 1.57634 37.6303C0.101333 40.4322 -0.35685 43.6554 0.279257 46.7549C0.915365 49.8544 2.60673 52.6401 5.06737 54.6409C7.52802 56.6417 10.607 57.7348 13.7836 57.7355H26.1754C26.458 57.7409 26.7389 57.6902 27.0016 57.5862C27.2643 57.4823 27.5035 57.3272 27.7053 57.1301C27.9071 56.933 28.0674 56.6978 28.1769 56.4382C28.2863 56.1787 28.3426 55.9 28.3426 55.6185C28.3426 55.337 28.2863 55.0583 28.1769 54.7988C28.0674 54.5392 27.9071 54.304 27.7053 54.1069C27.5035 53.9098 27.2643 53.7547 27.0016 53.6508C26.7389 53.5468 26.458 53.4961 26.1754 53.5015H26.1786ZM20.5271 50.7199C18.9674 52.2729 16.9151 53.2393 14.7201 53.4543C12.5251 53.6694 10.3231 53.1198 8.48938 51.8992C6.65562 50.6787 5.30354 48.8627 4.66351 46.7606C4.02349 44.6586 4.1351 42.4005 4.97936 40.3713C5.82362 38.342 7.34828 36.667 9.29356 35.6318C11.2388 34.5965 13.4844 34.265 15.6476 34.6937C17.8107 35.1225 19.7577 36.2849 21.1568 37.983C22.5559 39.6811 23.3204 41.8098 23.3203 44.0063C23.3219 45.2534 23.0761 46.4885 22.5969 47.6406C22.1177 48.7928 21.4145 49.8392 20.5279 50.7199H20.5271Z" fill="#071108"/>
<path d="M104.42 40.4391H88.468C88.1854 40.4337 87.9045 40.4844 87.6418 40.5883C87.3791 40.6923 87.1399 40.8473 86.9381 41.0445C86.7363 41.2416 86.576 41.4768 86.4666 41.7363C86.3572 41.9959 86.3008 42.2746 86.3008 42.5561C86.3008 42.8376 86.3572 43.1162 86.4666 43.3758C86.576 43.6354 86.7363 43.8706 86.9381 44.0677C87.1399 44.2648 87.3791 44.4199 87.6418 44.5238C87.9045 44.6277 88.1854 44.6785 88.468 44.673H104.42C104.703 44.6785 104.984 44.6277 105.246 44.5238C105.509 44.4199 105.748 44.2648 105.95 44.0677C106.152 43.8706 106.312 43.6354 106.422 43.3758C106.531 43.1162 106.587 42.8376 106.587 42.5561C106.587 42.2746 106.531 41.9959 106.422 41.7363C106.312 41.4768 106.152 41.2416 105.95 41.0445C105.748 40.8473 105.509 40.6923 105.246 40.5883C104.984 40.4844 104.703 40.4337 104.42 40.4391Z" fill="#071108"/>
<path d="M96.2901 53.4445H94.3526C93.7888 53.4445 93.248 53.6675 92.8493 54.0646C92.4506 54.4617 92.2266 55.0003 92.2266 55.5618C92.2266 56.1234 92.4506 56.6619 92.8493 57.059C93.248 57.4561 93.7888 57.6792 94.3526 57.6792H96.2901C96.8539 57.6792 97.3947 57.4561 97.7934 57.059C98.1921 56.6619 98.4161 56.1234 98.4161 55.5618C98.4161 55.0003 98.1921 54.4617 97.7934 54.0646C97.3947 53.6675 96.8539 53.4445 96.2901 53.4445Z" fill="#071108"/>
<path d="M88.3163 53.4445H77.9964C80.1777 51.1495 81.4974 48.1753 81.7326 45.0239C81.9677 41.8725 81.1041 38.7367 79.2873 36.1458C77.4705 33.5549 74.8119 31.6675 71.7601 30.8021C68.7082 29.9367 65.4501 30.1462 62.5354 31.3955C59.6207 32.6447 57.2279 34.857 55.7609 37.6591C54.294 40.4613 53.8425 43.6816 54.4828 46.7768C55.1231 49.8719 56.816 52.6523 59.2757 54.6487C61.7354 56.6451 64.8114 57.7354 67.9845 57.7355C74.7559 57.7355 81.5401 57.6792 88.3163 57.6792C88.8801 57.6792 89.4209 57.4561 89.8196 57.059C90.2183 56.6619 90.4423 56.1234 90.4423 55.5618C90.4423 55.0003 90.2183 54.4617 89.8196 54.0646C89.4209 53.6676 88.8801 53.4445 88.3163 53.4445ZM74.7265 50.7199C73.1668 52.2733 71.1145 53.2401 68.9193 53.4554C66.724 53.6708 64.5218 53.1215 62.6877 51.901C60.8536 50.6806 59.5011 48.8646 58.8608 46.7624C58.2205 44.6602 58.3319 42.4019 59.176 40.3723C60.0201 38.3427 61.5448 36.6675 63.4902 35.6319C65.4356 34.5964 67.6813 34.2647 69.8447 34.6933C72.0082 35.1219 73.9555 36.2843 75.3548 37.9825C76.7541 39.6807 77.5189 41.8096 77.5188 44.0064C77.5202 45.2534 77.2743 46.4884 76.7951 47.6405C76.316 48.7927 75.6129 49.8391 74.7265 50.7199Z" fill="#071108"/>
<path d="M72.7513 27.8991C80.2336 28.492 86.5744 28.9946 87.5431 18.5648C87.6227 17.7538 87.6545 15.6103 87.6465 13.4501C87.6418 11.6102 87.6171 9.80363 87.547 8.67876C87.434 6.85551 85.8237 5.62917 84.2206 6.69696C80.7303 9.03628 74.7437 9.41044 68.6329 9.79253C56.0262 10.5805 43.9328 11.588 43.4003 26.9565C43.2252 32.0172 44.33 38.7316 47.1955 47.6386H35.1436C35.9248 42.4837 34.8263 37.2207 32.0472 32.8028C29.5001 28.7377 25.673 25.5748 21.2123 23.9854L30.6049 8.24435L34.4686 11.439C34.9015 11.7867 35.4544 11.9509 36.0078 11.8959C36.5612 11.841 37.0707 11.5714 37.4262 11.1455C37.7816 10.7195 37.9545 10.1713 37.9075 9.61944C37.8605 9.06755 37.5974 8.55624 37.1749 8.19599L31.5123 3.51498C30.9034 2.9363 30.0899 2.79598 29.3034 3.06154L25.0975 0.342516C23.7276 -0.544538 21.9271 0.394045 21.8284 1.98028L21.498 7.08064C21.4773 7.42936 21.5436 7.77777 21.6908 8.09485C21.838 8.41193 22.0616 8.68785 22.3417 8.89805C22.6219 9.10825 22.9499 9.24621 23.2965 9.29964C23.6432 9.35308 23.9977 9.32034 24.3286 9.20433L25.2885 8.88011L16.1721 24.1566C14.7553 26.404 17.1273 27.1856 18.7193 27.6264C22.7175 28.7314 26.188 31.4417 28.4406 35.0375C30.6977 38.6275 31.5818 42.9066 30.9312 47.0924C30.8118 47.8621 30.3955 49.098 30.3955 49.7575C30.3955 50.3191 30.6195 50.8576 31.0182 51.2547C31.417 51.6518 31.9577 51.8749 32.5216 51.8749H50.1407C51.6682 51.8749 52.5055 50.5146 52.1696 49.1083C51.2542 44.3472 51.9396 39.5386 54.0298 35.6701C58.2645 27.8348 64.8504 27.2736 72.7513 27.8991ZM51.3657 31.9031C52.5119 26.8495 55.3543 22.7916 60.6834 21.5303C61.6734 21.2994 62.684 21.1666 63.7002 21.134C64.2619 21.1143 64.7927 20.8733 65.1759 20.4638C65.5591 20.0544 65.7632 19.5102 65.7435 18.9508C65.7238 18.3915 65.4817 17.8628 65.0706 17.4812C64.6595 17.0996 64.113 16.8963 63.5514 16.9159C62.2554 16.9561 60.9666 17.1234 59.7036 17.4153C53.4153 18.9033 49.4434 23.3956 47.6548 29.3751C47.6182 28.5744 47.6129 27.815 47.6389 27.0968C48.0711 14.5496 58.8009 14.6511 68.898 14.0169C74.1284 13.6903 79.2752 13.3685 83.3968 11.8171C83.4048 12.3514 83.4095 12.9063 83.4111 13.4549C83.4183 15.5088 83.388 17.4978 83.3244 18.189C82.7425 24.4515 78.3145 24.1003 73.0833 23.6857C64.2001 22.9771 56.8046 23.8443 51.3657 31.9031Z" fill="#071108"/>
<path d="M87.984 37.4V25.5H92.829C93.3843 25.704 93.8773 26.061 94.308 26.571C94.7386 27.081 94.954 27.6987 94.954 28.424C94.954 29.7047 94.5346 30.6 93.696 31.11V31.178C94.7386 31.756 95.26 32.6627 95.26 33.898C95.26 35.3147 94.5403 36.482 93.101 37.4H87.984ZM90.296 30.413H91.979C92.4776 30.107 92.727 29.6424 92.727 29.019C92.727 28.3957 92.4946 27.9027 92.03 27.54H90.296V30.413ZM90.296 35.428H92.047C92.251 35.2807 92.4323 35.0484 92.591 34.731C92.761 34.4137 92.846 34.0964 92.846 33.779C92.846 33.4617 92.778 33.1727 92.642 32.912C92.506 32.6514 92.336 32.4587 92.132 32.334H90.296V35.428ZM96.5006 37.4V25.5H98.8296V37.4H96.5006ZM100.468 37.4V25.5H102.797V30.515H102.882L105.007 25.5H107.404L104.922 31.178L107.523 37.4H104.939L102.916 32.198H102.797V37.4H100.468ZM108.337 37.4V25.5H114.44V27.54H110.666V30.379H114.032V32.351H110.666V35.428H114.508V37.4H108.337ZM115.434 33.473V31.535H118.936V33.473H115.434ZM120.174 37.4V25.5H125.019C125.575 25.704 126.068 26.061 126.498 26.571C126.929 27.081 127.144 27.6987 127.144 28.424C127.144 29.7047 126.725 30.6 125.886 31.11V31.178C126.929 31.756 127.45 32.6627 127.45 33.898C127.45 35.3147 126.731 36.482 125.291 37.4H120.174ZM122.486 30.413H124.169C124.668 30.107 124.917 29.6424 124.917 29.019C124.917 28.3957 124.685 27.9027 124.22 27.54H122.486V30.413ZM122.486 35.428H124.237C124.441 35.2807 124.623 35.0484 124.781 34.731C124.951 34.4137 125.036 34.0964 125.036 33.779C125.036 33.4617 124.968 33.1727 124.832 32.912C124.696 32.6514 124.526 32.4587 124.322 32.334H122.486V35.428ZM128.691 37.4V25.5H131.02V37.4H128.691ZM132.659 37.4V25.5H134.988V30.515H135.073L137.198 25.5H139.595L137.113 31.178L139.714 37.4H137.13L135.107 32.198H134.988V37.4H132.659ZM140.528 37.4V25.5H146.631V27.54H142.857V30.379H146.223V32.351H142.857V35.428H146.699V37.4H140.528Z" fill="#36827F"/>
</svg>
